<?xml version="1.0" standalone="no"?>
<!DOCTYPE svg PUBLIC "-//W3C//DTD SVG 20010904//EN"
 "http://www.w3.org/TR/2001/REC-SVG-20010904/DTD/svg10.dtd">
<svg version="1.0" xmlns="http://www.w3.org/2000/svg"
 width="3308.000000pt" height="2541.000000pt" viewBox="0 0 3308.000000 2541.000000"
 preserveAspectRatio="xMidYMid meet">

<g transform="translate(0.000000,2541.000000) scale(0.100000,-0.100000)"
fill="#000000" stroke="none">
<path d="M4681 11099 c-484 -54 -945 -294 -1239 -644 -310 -369 -451 -801
-421 -1291 50 -814 651 -1482 1488 -1654 308 -63 696 -45 976 46 304 99 565
298 756 577 l60 87 -103 -1 -103 0 -60 -75 c-182 -227 -470 -393 -806 -464
-143 -30 -377 -38 -517 -16 -121 18 -278 69 -389 124 -254 129 -506 394 -637
672 -212 450 -240 998 -76 1474 184 534 584 896 1086 982 142 24 375 15 506
-19 178 -47 327 -129 457 -252 144 -137 197 -225 331 -553 46 -111 85 -200 87
-198 4 4 -81 784 -93 854 -6 40 -60 77 -256 177 -251 129 -447 175 -768 180
-107 2 -233 -1 -279 -6z"/>
<path d="M12097 11099 c-349 -40 -654 -183 -908 -426 -238 -227 -385 -505
-440 -833 -19 -112 -16 -384 5 -505 54 -301 189 -559 411 -780 297 -297 627
-440 1065 -462 359 -17 695 73 985 264 132 88 337 291 423 421 170 256 242
501 242 822 0 262 -40 444 -145 655 -202 405 -591 710 -1040 813 -170 39 -418
52 -598 31z m438 -188 c193 -40 364 -132 507 -274 211 -209 336 -467 384 -789
22 -151 15 -450 -15 -586 -140 -653 -629 -1054 -1210 -994 -257 27 -450 115
-625 287 -192 190 -314 420 -377 715 -19 89 -23 136 -23 315 -1 243 12 331 74
518 148 443 441 723 850 811 98 22 325 20 435 -3z"/>
<path d="M6320 10986 l0 -74 65 -4 c36 -2 71 -10 77 -16 10 -10 14 -343 16
-1591 3 -1811 14 -1621 -97 -1629 l-61 -4 0 -74 0 -74 375 0 375 0 0 74 0 73
-67 6 c-48 4 -70 10 -80 23 -11 14 -13 312 -13 1600 0 1439 1 1583 16 1595 9
7 45 15 80 17 l64 4 0 74 0 74 -375 0 -375 0 0 -74z"/>
<path d="M7330 10985 l0 -75 53 0 c31 0 61 -6 75 -16 l22 -15 0 -1588 c0
-1382 -2 -1590 -15 -1601 -8 -6 -41 -14 -75 -17 l-60 -6 0 -73 0 -74 1137 2
1137 3 102 253 103 252 -79 0 -79 0 -43 -82 c-27 -51 -68 -107 -108 -149 -101
-105 -49 -99 -877 -99 l-703 0 0 750 0 750 529 0 c425 0 531 -3 539 -13 6 -7
14 -39 18 -70 l7 -57 73 0 74 0 0 230 0 230 -74 0 -73 0 -7 -60 c-5 -44 -12
-63 -26 -70 -12 -6 -208 -10 -539 -10 l-521 0 0 756 0 755 633 -3 632 -3 57
-23 c76 -31 155 -118 210 -229 l40 -83 79 0 c43 0 79 3 79 7 0 6 -170 431
-192 479 l-11 24 -1059 0 -1058 0 0 -75z"/>
<path d="M9900 10986 l0 -74 66 -4 c50 -3 70 -9 80 -23 20 -27 21 -3162 1
-3189 -10 -13 -32 -19 -80 -23 l-67 -6 0 -73 0 -74 1582 2 1582 3 103 253 102
252 -82 0 -82 0 -35 -67 c-48 -93 -140 -184 -226 -225 l-69 -33 -1137 -3
-1138 -2 0 1589 0 1590 22 15 c14 10 44 16 75 16 l53 0 0 75 0 75 -375 0 -375
0 0 -74z"/>
<path d="M15550 10985 l0 -75 48 0 c58 0 114 -15 141 -38 13 -11 285 -642 724
-1682 l703 -1665 73 0 73 0 594 1630 c326 897 601 1650 610 1674 21 54 71 80
157 81 l57 0 0 75 0 75 -245 0 -245 0 0 -74 0 -75 53 -3 c40 -2 51 -6 49 -18
-6 -29 -987 -2720 -992 -2720 -5 0 -1160 2720 -1160 2733 0 4 25 7 55 7 l55 0
0 75 0 75 -375 0 -375 0 0 -75z"/>
<path d="M18770 10986 l0 -74 64 -4 c35 -2 71 -10 80 -17 15 -12 16 -156 16
-1595 0 -1288 -2 -1586 -13 -1600 -10 -13 -32 -19 -80 -23 l-67 -6 0 -73 0
-74 1141 2 1142 3 98 235 c55 129 102 243 105 253 5 15 -3 17 -75 17 l-81 0
-26 -52 c-37 -74 -105 -167 -152 -210 -76 -69 -64 -68 -849 -68 l-703 0 2
1593 3 1592 625 0 c581 0 629 -1 678 -18 29 -11 66 -30 83 -44 48 -41 117
-137 149 -207 l29 -66 81 0 c78 0 81 1 75 21 -4 12 -50 126 -102 255 l-95 234
-1064 0 -1064 0 0 -74z"/>
<path d="M21360 10986 l0 -76 53 0 c31 0 61 -6 75 -16 l22 -15 0 -750 0 -749
-734 0 c-829 0 -756 -8 -764 86 l-4 54 -74 0 -74 0 0 -230 0 -230 74 0 74 0 4
54 c8 94 -65 86 764 86 l734 0 0 -749 c0 -671 -2 -750 -16 -762 -9 -7 -42 -15
-75 -17 l-59 -4 0 -74 0 -74 375 0 375 0 0 75 0 75 -44 0 c-49 0 -96 15 -108
33 -4 7 -8 346 -8 753 l0 742 328 4 c225 3 331 1 338 -6 15 -14 874 -1506 874
-1518 0 -4 -20 -8 -45 -8 l-45 0 0 -75 0 -75 375 0 375 0 0 75 0 75 -43 0
c-64 0 -139 26 -168 57 -30 33 -890 1523 -887 1538 1 6 46 24 100 42 314 103
517 261 628 488 66 136 75 181 75 360 -1 158 -11 217 -58 334 -100 248 -356
426 -733 510 -229 51 -276 54 -1011 58 l-693 4 0 -75z m1350 -121 c131 -20
295 -74 381 -125 139 -83 242 -223 286 -390 24 -90 23 -309 0 -405 -56 -222
-215 -388 -463 -483 -172 -66 -251 -76 -624 -76 l-335 -1 -3 740 c-1 407 0
746 3 754 8 20 605 9 755 -14z"/>
<path d="M24260 10986 l0 -76 49 0 c27 0 61 -4 75 -10 l26 -10 0 -1594 c0
-1442 -2 -1595 -16 -1607 -9 -7 -42 -15 -75 -17 l-59 -4 0 -75 0 -74 718 4
c783 5 777 4 1030 68 363 90 709 295 935 553 230 264 371 596 406 960 62 632
-183 1214 -659 1565 -256 190 -516 299 -865 363 -103 19 -159 21 -837 25
l-728 4 0 -75z m1460 -124 c290 -52 518 -169 715 -367 119 -119 187 -216 260
-367 275 -576 218 -1442 -126 -1898 -73 -96 -223 -241 -315 -302 -141 -94
-294 -157 -486 -200 -84 -19 -133 -22 -505 -25 l-413 -5 0 1590 c0 874 3 1592
8 1596 4 5 174 6 377 3 314 -4 387 -8 485 -25z"/>
<path d="M27580 10985 l0 -75 53 0 c31 0 61 -6 75 -16 l22 -15 0 -1588 c0
-1437 -2 -1590 -16 -1602 -9 -7 -42 -15 -75 -17 l-59 -4 0 -74 0 -74 1138 0
1137 0 85 212 c47 116 93 231 102 254 l18 44 -80 0 -80 0 -31 -62 c-17 -35
-56 -95 -86 -135 -43 -57 -67 -78 -111 -100 l-57 -28 -722 -3 -723 -3 0 751 0
750 529 0 c598 0 551 7 559 -86 l4 -54 74 0 74 0 0 230 0 230 -74 0 -74 0 -4
-54 c-8 -93 39 -86 -559 -86 l-529 0 0 756 0 755 633 -3 632 -3 57 -23 c75
-30 155 -117 210 -229 l41 -83 79 0 c43 0 78 4 78 9 0 4 -45 118 -99 252 l-99
244 -1061 3 -1061 2 0 -75z"/>
<path d="M23181 6169 c-143 -28 -283 -139 -349 -276 -37 -77 -37 -79 -37 -203
0 -124 0 -126 37 -203 121 -252 423 -356 677 -231 85 42 172 124 213 200 57
105 73 242 43 359 -65 247 -325 405 -584 354z m213 -180 c67 -25 134 -87 173
-160 24 -47 28 -65 28 -139 0 -73 -4 -92 -28 -138 -86 -164 -262 -228 -415
-151 -259 129 -236 498 37 595 55 20 143 17 205 -7z"/>
<path d="M13736 6155 c-125 -35 -198 -118 -204 -235 -5 -85 10 -132 59 -185
52 -56 128 -89 281 -119 192 -38 238 -62 238 -125 0 -64 -40 -100 -135 -121
-69 -15 -143 1 -255 57 -52 26 -98 48 -102 48 -4 0 -28 -29 -53 -65 l-46 -65
28 -22 c108 -87 297 -135 454 -116 202 26 288 110 289 281 0 98 -18 141 -80
195 -52 44 -93 59 -260 97 -74 16 -155 40 -180 52 -81 41 -79 108 5 152 31 16
58 21 121 21 75 0 87 -3 168 -43 48 -24 89 -42 90 -40 2 1 24 32 50 67 l47 65
-23 18 c-38 29 -140 76 -188 87 -62 15 -245 12 -304 -4z"/>
<path d="M19587 6159 c-58 -14 -132 -55 -162 -91 -42 -50 -55 -90 -55 -170 0
-164 82 -231 349 -284 138 -28 179 -42 210 -73 54 -54 -6 -148 -108 -170 -89
-19 -187 5 -302 75 -31 19 -59 34 -62 34 -8 0 -97 -127 -97 -138 0 -14 145
-92 212 -114 89 -29 279 -31 362 -3 75 24 134 69 165 125 33 59 41 172 16 235
-43 113 -100 144 -374 206 -143 31 -191 60 -191 115 0 24 8 39 30 58 73 61
197 61 318 0 43 -22 80 -40 84 -42 4 -2 29 27 56 65 l50 68 -26 18 c-50 34
-127 70 -177 83 -56 15 -239 17 -298 3z"/>
<path d="M9290 5691 l0 -471 90 0 90 0 0 139 0 139 168 4 c140 4 176 8 223 26
75 30 132 81 166 150 24 50 28 69 28 147 0 78 -4 97 -28 147 -32 65 -84 115
-159 155 l-53 28 -262 3 -263 3 0 -470z m489 295 c100 -52 131 -186 63 -268
-42 -50 -75 -58 -232 -58 l-140 0 0 170 0 170 140 0 c104 0 148 -4 169 -14z"/>
<path d="M10900 5733 c-123 -235 -234 -447 -247 -470 l-25 -43 101 0 101 0 37
75 37 75 228 0 228 0 37 -75 37 -75 99 0 98 0 -95 183 c-303 580 -394 751
-403 754 -6 2 -111 -189 -233 -424z m303 -70 l66 -138 -131 -3 c-72 -1 -133 0
-136 3 -6 6 119 275 128 275 4 0 36 -62 73 -137z"/>
<path d="M12460 5690 l0 -470 90 0 90 0 0 470 0 470 -90 0 -90 0 0 -470z"/>
<path d="M15255 5700 c-132 -253 -241 -465 -243 -470 -2 -6 34 -10 95 -10 l99
0 35 73 34 72 227 3 228 2 37 -75 37 -75 99 0 c59 0 97 4 95 10 -14 42 -485
929 -493 930 -5 0 -118 -207 -250 -460z m321 -36 c35 -75 64 -138 64 -140 0
-2 -61 -4 -135 -4 -74 0 -135 3 -135 8 0 12 129 272 135 272 3 0 35 -61 71
-136z"/>
<path d="M17190 5839 c0 -217 -4 -334 -12 -361 -14 -49 -75 -105 -123 -114
-65 -12 -164 35 -180 86 -5 17 -11 16 -88 -17 -45 -20 -83 -37 -85 -38 -6 -6
46 -80 74 -107 16 -15 56 -39 89 -55 52 -24 72 -27 155 -27 83 0 103 4 156 28
73 33 122 81 161 156 l28 55 3 358 3 357 -91 0 -90 0 0 -321z"/>
<path d="M18290 5690 l0 -470 90 0 90 0 0 470 0 470 -90 0 -90 0 0 -470z"/>
<path d="M20970 5690 l0 -470 90 0 90 0 2 237 3 237 149 -177 c83 -97 153
-174 156 -170 4 5 71 84 151 178 l144 169 3 -237 2 -237 90 0 90 0 0 471 c0
264 -4 469 -9 467 -5 -1 -113 -123 -241 -271 l-233 -267 -21 19 c-12 11 -118
133 -236 270 -118 137 -218 250 -222 250 -5 1 -8 -210 -8 -469z"/>
</g>
</svg>
